<svg width="41" height="40" viewBox="0 0 41 40" fill="none" xmlns="http://www.w3.org/2000/svg">
<rect x="0.34375" width="40" height="40" fill="#3EB5F1"/>
<path d="M16.2614 13.2197C17.2159 13.2197 18.0068 13.5333 18.6341 14.1606C19.2614 14.7879 19.575 15.5924 19.575 16.5743C19.575 17.0652 19.5068 17.5425 19.3705 18.0061C19.2614 18.4697 19.0296 19.1652 18.675 20.0925L16.5477 25.9016H13.2341L14.8704 19.6016C14.2704 19.3834 13.7931 19.0152 13.4386 18.497C13.1113 17.9516 12.9477 17.3106 12.9477 16.5743C12.9477 15.5924 13.2613 14.7879 13.8886 14.1606C14.5159 13.5333 15.3068 13.2197 16.2614 13.2197ZM24.9341 13.2197C25.8887 13.2197 26.6796 13.5333 27.3069 14.1606C27.9342 14.7879 28.2478 15.5924 28.2478 16.5743C28.2478 17.0652 28.1796 17.5425 28.0433 18.0061C27.9342 18.4697 27.7023 19.1652 27.3478 20.0925L25.2205 25.9016H21.9068L23.5432 19.6016C22.9432 19.3834 22.4659 19.0152 22.1114 18.497C21.7841 17.9516 21.6205 17.3106 21.6205 16.5743C21.6205 15.5924 21.9341 14.7879 22.5614 14.1606C23.1887 13.5333 23.9796 13.2197 24.9341 13.2197Z" fill="white"/>
</svg>
