<?xml version="1.0" encoding="utf-8"?>
<!-- Generator: Adobe Illustrator 16.0.0, SVG Export Plug-In . SVG Version: 6.00 Build 0)  -->
<!DOCTYPE svg PUBLIC "-//W3C//DTD SVG 1.1//EN" "http://www.w3.org/Graphics/SVG/1.1/DTD/svg11.dtd">
<svg version="1.1" id="Layer_1" xmlns="http://www.w3.org/2000/svg" xmlns:xlink="http://www.w3.org/1999/xlink" x="0px" y="0px" viewBox="0 0 198.679 21.013" enable-background="new 0 0 198.679 21.013"
	 xml:space="preserve">
<g>
	<defs>
		<rect id="SVGID_1_" width="198.679" height="21.013"/>
	</defs>
	<clipPath id="SVGID_2_">
		<use xlink:href="#SVGID_1_"  overflow="visible"/>
	</clipPath>
	<path clip-path="url(#SVGID_2_)" fill="#96BE0F" d="M14.742,13.118c0.598,1.271,1.072,2.278,1.648,3.504H5.799
		c1.851-3.185,3.499-6.018,5.317-9.146c0.95,1.372,1.588,2.293,2.33,3.363c1.161-0.663,2.264-1.294,3.469-1.984l-3.984-8.45H9.525
		L0,20.609h5.398h11.661h5.398L18.021,11.2C16.843,11.888,15.801,12.499,14.742,13.118"/>
	<path clip-path="url(#SVGID_2_)" fill="#96BE0F" d="M34.119,0.404h-8.833V20.61h8.833c5.773,0,10.449-3.955,10.449-10.017
		C44.568,4.531,39.892,0.404,34.119,0.404 M34.119,16.078h-3.983V4.936h3.983c2.886,0,5.398,2.194,5.398,5.658
		S37.005,16.078,34.119,16.078"/>
	<path clip-path="url(#SVGID_2_)" fill="#96BE0F" d="M57.586,8.428c-2.454-0.895-4.474-1.472-4.474-2.656
		c0-0.981,0.953-1.587,2.396-1.587s2.886,0.837,3.377,2.627l4.676-1.271C62.608,2.366,59.549,0,55.681,0
		c-4.387,0-7.563,2.857-7.563,6.003c0,3.551,2.8,4.878,5.225,5.802c2.886,1.098,5.369,1.703,5.369,3.146
		c0,0.924-0.953,1.674-2.511,1.674c-2.079,0-3.695-1.414-4.157-3.001l-4.734,1.27c1.328,3.781,4.33,6.119,8.544,6.119
		c4.705,0,7.88-2.627,7.88-6.322C63.734,10.824,60.588,9.525,57.586,8.428"/>
	<path clip-path="url(#SVGID_2_)" fill="#2B3308" d="M78.051,13.076h5.311v0.028c-0.577,1.502-1.991,3.176-5.225,3.176
		c-3.319,0-5.715-2.224-5.715-5.773c0-3.319,2.079-5.715,5.427-5.715c1.587,0,3.29,0.721,4.243,1.876l4.936-1.299
		C85.208,2.079,81.774,0,77.849,0c-5.802,0-10.478,4.417-10.478,10.507s4.676,10.507,10.478,10.507c2.28,0,4.301-0.779,5.484-2.05
		v1.646h4.157V9.179h-9.439V13.076z"/>
	<path clip-path="url(#SVGID_2_)" fill="#2B3308" d="M99.902,0.404l-9.525,20.205h5.397l1.184-2.598h9.294l1.183,2.598h5.398
		l-9.525-20.205H99.902z M99.007,13.48l2.31-5.109l0.289-0.808l0.287,0.808l2.311,5.109H99.007z"/>
	<path clip-path="url(#SVGID_2_)" fill="#2B3308" d="M131.337,7.216c0-4.157-3.061-6.812-8.141-6.812h-7.533v20.205h4.85v-6.581
		h2.396l4.013,6.581h5.367l-4.646-7.476C130.009,12.037,131.337,9.958,131.337,7.216 M123.86,9.496h-3.348V4.935h3.348
		c1.732,0,2.425,1.184,2.425,2.281S125.593,9.496,123.86,9.496"/>
	<path clip-path="url(#SVGID_2_)" fill="#2B3308" d="M145.394,0.404h-8.832V20.61h8.832c5.773,0,10.449-3.955,10.449-10.017
		C155.843,4.531,151.167,0.404,145.394,0.404 M145.394,16.078h-3.982V4.936h3.982c2.886,0,5.398,2.194,5.398,5.658
		S148.279,16.078,145.394,16.078"/>
	<polygon clip-path="url(#SVGID_2_)" fill="#2B3308" points="165.108,12.614 172.815,12.614 172.815,8.255 165.108,8.255 
		165.108,4.936 174.952,4.936 174.952,0.404 160.26,0.404 160.26,20.609 175.125,20.609 175.125,16.078 165.108,16.078 	"/>
	<polygon clip-path="url(#SVGID_2_)" fill="#2B3308" points="193.829,0.404 193.829,11.055 193.888,11.805 193.483,11.055 
		185.112,0.404 180.552,0.404 180.552,20.609 185.401,20.609 185.401,9.814 185.344,9.063 185.747,9.814 194.118,20.609 
		198.679,20.609 198.679,0.404 	"/>
</g>
</svg>
