<svg width="34" height="46" viewBox="0 0 34 46" fill="none" xmlns="http://www.w3.org/2000/svg">
<path d="M16.9998 0C7.81372 0 0.340332 7.47338 0.340332 16.6594C0.340332 28.0595 15.2489 44.7955 15.8837 45.5023C16.4799 46.1664 17.5208 46.1652 18.1159 45.5023C18.7507 44.7955 33.6592 28.0595 33.6592 16.6594C33.6591 7.47338 26.1858 0 16.9998 0ZM16.9998 25.0412C12.378 25.0412 8.61809 21.2811 8.61809 16.6594C8.61809 12.0376 12.3781 8.27766 16.9998 8.27766C21.6214 8.27766 25.3814 12.0377 25.3814 16.6595C25.3814 21.2812 21.6214 25.0412 16.9998 25.0412Z" fill="#3EB5F1"/>
</svg>
