<svg width="80" height="80" viewBox="0 0 80 80" fill="none" xmlns="http://www.w3.org/2000/svg">
<path d="M0 40C0 17.9086 17.9086 0 40 0C62.0914 0 80 17.9086 80 40C80 62.0914 62.0914 80 40 80C17.9086 80 0 62.0914 0 40Z" fill="#F3F1FA"/>
<path fill-rule="evenodd" clip-rule="evenodd" d="M39.0627 46.7719L33.6011 61L31.2594 55.7406L26 58.0822L31.3979 44.0202C33.5427 45.6515 36.1878 46.6589 39.0627 46.7719H39.0627ZM47.8123 44.0202L53.2102 58.0822L47.9508 55.7406L45.6091 61L40.1475 46.7719C43.0224 46.6589 45.6675 45.6515 47.8123 44.0202ZM39.6051 45.4256C46.35 45.4256 51.8179 39.9577 51.8179 33.2128C51.8179 26.4678 46.35 21 39.6051 21C32.8602 21 27.3923 26.4678 27.3923 33.2128C27.3923 39.9577 32.8602 45.4256 39.6051 45.4256ZM39.6051 36.8662L34.8557 39.9977L36.8912 34.5698L32.8202 31.8558H37.5696L39.6051 26.4279L41.6406 31.8558H46.39L42.3191 34.5698L44.3545 39.9977L39.6051 36.8662Z" fill="#3EB5F1"/>
</svg>
